<svg width="651" height="694" xmlns="http://www.w3.org/2000/svg"><g fill="none" fill-rule="evenodd"><path d="M23.568 393.216c13.097-149.7 175.36-295.094 277.685-230.184 102.324 64.911 72.136 156.285 119.164 188.96 80.495 55.928 238.025 1.551 229.758 96.045-13.097 149.7-163.985 258.783-337.018 243.645-75.072-6.568-131.398-29.072-182.024-71.884-66.06-55.864-114.98-141.832-107.565-226.582z" fill="#4B8BD3" opacity=".5"></path><path d="M170.636 27.706c5.192 19.21 11.91 62.014 5.018 68.743H131.93l-.013-.215c-16.194-1.716-28.81-15.419-28.81-32.068V32.25c0-17.811 14.439-32.25 32.25-32.25h3.346c16.269 0 29.724 12.046 31.932 27.706z" fill="#191847"></path><path d="M120.088 57.985c-6.948-8.148-11.65-18.134-10.864-29.323 2.264-32.24 47.178-25.148 55.915-8.876 8.737 16.272 7.699 57.547-3.593 60.455-4.503 1.16-14.096-1.681-23.859-7.561l6.128 43.32h-36.184l12.457-58.015z" fill="#D4A181"></path><path d="M129.87 52.539c1.666 17.894.998 38.329-3.97 43.18H82.177c-2.436-42.293 21.107-25.916 21.107-65.736 1.468-1.433 2.855-2.851 4.228-4.074l-.049-1.171C115.034 9.25 124.64 1.506 136.28 1.506c17.46 0 22.97 8.118 27.662 15.01-3.509 12.03-17.125 13.813-29.223 21.311a8.262 8.262 0 0 0-5.226-1.851c-4.58 0-8.292 3.71-8.292 8.285 0 4.576 3.713 8.286 8.292 8.286.127 0 .252-.003.377-.008z" fill="#191847"></path><g><path fill="#C59476" d="M97.08 242l50.59 167.18 24.506 142.174h19.215L165.496 242z"></path><path d="M78.981 242c3.436 91.79-.608 139.137-1.377 147.477-.769 8.34-11.3 62.414-36.23 164.677l20.475-7.108c39.4-93.79 52.827-142.535 57.346-154.851 4.519-12.316 16.52-62.38 36.006-150.195h-76.22z" fill="#D4A181"></path><path d="M41.88 545.312c-1.744 4.472-2.616 7.775-2.616 9.91 0 2.403.401 5.911 1.205 10.523h75.395c1.96-6.46.828-9.947-3.393-10.462-4.221-.515-7.728-.98-10.52-1.395l-35.489-15.777a.864.864 0 0 0-1.149.46l-2.438 5.897c-3.908 1.818-7.083 2.727-9.526 2.727-2.15 0-5.188-.938-9.114-2.814a1.728 1.728 0 0 0-2.355.93zM168.25 545.312c-1.743 4.472-2.615 7.775-2.615 9.91 0 2.403.401 5.911 1.204 10.523h75.396c1.96-6.46.828-9.947-3.393-10.462-4.221-.515-7.728-.98-10.52-1.395l-35.489-15.777a.864.864 0 0 0-1.15.46l-2.437 5.897c-3.908 1.818-7.083 2.727-9.526 2.727-2.15 0-5.189-.938-9.114-2.814a1.728 1.728 0 0 0-2.355.93z" fill="#E4E4E4"></path><path fill="#69A1AC" d="M90.358 242l21.51 85.176h65.7L167.77 242z"></path><path d="M78.258 242c-7.077 21.444-8.422 49.836-4.033 85.176h67.044L159.705 242H78.258z" fill="#89C5CC"></path></g><g><path d="M215.964 219.731l38.098 37.437c11.084 4.762 20.167 10.021 27.247 15.777 1.592 1.934 3.326 5.64-4.166 3.982-7.49-1.658-15.445-3.064-16.853-.61-1.408 2.454 2.741 6.214.14 9.426-1.736 2.141-7.57-4.67-17.503-20.43l-39.616-23.528 12.653-22.054zm-169.099 5.28l28.104.111c-17.353 56.427-26.72 86.367-28.104 89.82-3.112 7.768 3.474 19.599 6.29 25.957-9.172 4.134-8.195-11.176-19.765-5.754-10.561 4.949-18.595 13.916-30.796 6.333-1.5-.933-3.144-4.443.827-7.186 9.896-6.835 24.155-18.796 26.082-22.734 2.627-5.369 8.415-34.218 17.362-86.547z" fill="#D4A181"></path><path d="M126.733 106.223l11.63-2.01c20.021 50.381 54.977 96.158 104.867 137.332l-37.7 46.135c-49.884-58.626-80.632-119.111-78.797-181.457z" fill="#9399CE"></path><path d="M76.038 253.432h103.555c-23.991-58.758-35.987-108.673-35.987-149.744L112.37 99c-24.55 39.77-31.483 88.737-36.33 154.432z" fill="#DDE3E9"></path><path d="M111.707 99.022l.013-.022h2.039c2.44.085 6.156.237 11.149.457l7.548 21.728c.798 26.491 5.46 79.878 13.988 160.161H78.56c.178 5.545.472 11.142.88 16.79H28.969c7.55-85.8 35.121-152.178 82.715-199.136l.024.022z" fill="#A5ABE8"></path><path d="M83.045 210.398c1.932 34.564 6.77 58.392 14.511 71.482H78.58c-.831-24.868.658-48.695 4.466-71.482z" fill-opacity=".1" fill="#000"></path><path fill-opacity=".2" fill="#FFF" d="M93.67 239.885l33.473-15.674v15.674z"></path></g><g><path d="M427.867 200.846c5.634-6.595 9.448-14.676 8.81-23.732-1.835-26.091-38.262-20.351-45.348-7.183-7.086 13.169-6.244 46.573 2.914 48.926 3.652.939 11.432-1.36 19.35-6.12l-4.97 35.06h29.347l-10.103-46.951z" fill="#DEBDA9"></path><path d="M402.92 155.589c4.01-1.22 9.832-1.633 12.28-1.353-1.392-3.328-1.945-7.035-1.494-10.645.438-3.508 2.01-6.495 3.463-9.624.67-1.443 1.43-2.878 2.562-3.981 1.154-1.124 2.614-1.866 4.145-2.22 1.567-.363 3.205-.332 4.774-.004.694.146 1.317.462 1.998.638.697.18 1.036-.255 1.542-.692 1.22-1.053 3.007-1.573 4.55-1.76 1.73-.208 3.527.052 5.178.62 1.607.552 3.15 1.449 4.312 2.755.517.582.987 1.244 1.292 1.975.125.3.146.477.446.587.278.102.603.105.89.202 2.77.935 5.139 3.07 6.428 5.81.753 1.6 1.11 4.414 1.012 7.57-.098 3.155-2.955 11.387-5.628 14.39-2.385 2.68-5.891 4.45-9.275 5.224 2.246 2.56 3.741 5.758 4.847 9.011a43.987 43.987 0 0 1 2.218 10.947c.26 3.554.285 7.313-.55 10.791-.783 3.253-2.454 5.922-5.246 7.615-1.278.776-2.654 1.358-4.037 1.89-1.364.525-2.731 1.036-4.16 1.33-2.703.557-5.817.462-7.9-1.684-.75-.773-1.575-1.745-2.123-2.69-.197-.34-.315-.562-.076-.894.286-.398.75-.702 1.118-1.013 2.099-1.775 3.398-4.143 3.726-6.958.332-2.855-.437-6.541-3.222-7.788-3.437-1.538-7.223.228-10.278 1.874-1.299-4.57-3.965-8.684-8.145-10.78-4.624-2.318-9.93-2.59-14.682-4.58-1.239-.518-2.5-1.106-3.412-2.162-.38-.442-.828-1.015-.98-1.598-.2-.767.296-1.41.68-2.008 2.032-3.17 9.738-9.576 13.748-10.795z" fill="#191847"></path><path fill="#DEBDA9" d="M445.41 350l-91.22 152.662-68.388 129.062h-14.73L385.658 350z"></path><path d="M294.54 624.545c1.556 3.98 2.334 6.927 2.334 8.84 0 2.181-.367 5.364-1.102 9.549h-68.96c-1.791-5.861-.757-9.026 3.104-9.493 3.861-.467 7.068-.89 9.622-1.266l32.394-14.287a.864.864 0 0 1 1.146.458l2.2 5.281c3.574 1.65 6.479 2.475 8.713 2.475 1.943 0 4.677-.83 8.204-2.492a1.728 1.728 0 0 1 2.346.935z" fill="#E4E4E4"></path><path d="M304.796 611.057l-28.408-8.602c12.446-37.245 27.7-78.232 45.763-122.961 18.063-44.73 37.461-87.894 58.196-129.494h80.232c-23.053 52.622-47.491 100.437-73.316 143.443-25.825 43.006-53.314 82.21-82.467 117.614z" fill="#D75C53"></path><path d="M451.405 350c8.61 53.646 25.215 122.186 26.782 124.3 1.045 1.411 38.655 14.027 112.83 37.849l-3.181 13.003c-88.455-12.776-135.063-22.688-139.824-29.736-7.142-10.573-42.804-94.094-56.617-145.416h60.01z" fill="#DEBDA9"></path><path d="M564.944 500.909l-5.605 20.942c-66.159 5.808-106.696 1.611-121.61-12.591-14.916-14.203-31.915-67.29-50.997-159.26h76.505c12.09 75.311 18.85 114.548 20.278 117.71 1.428 3.16 28.571 14.227 81.429 33.199z" fill="#E36E66"></path><path d="M586.143 506.819c4.19-.84 7.227-1.095 9.11-.763 2.149.379 5.22 1.293 9.213 2.743l-11.975 67.912c-6.083.747-9.02-.821-8.81-4.705.211-3.883.352-7.115.425-9.695l-8.445-34.383a.864.864 0 0 1 .65-1.049l5.583-1.25c2.245-3.233 3.562-5.95 3.95-8.15.337-1.914-.006-4.751-1.03-8.513a1.728 1.728 0 0 1 1.329-2.147z" fill="#E4E4E4"></path><g><path d="M342.304 300.766l-48.469-6.577c-9.695-5.366-18.615-8.998-26.758-10.897-2.292-.067-5.937.762-.507 5.266 5.431 4.505 10.942 9.488 9.974 11.892s-6.018 1.51-6.855 5.207c-.558 2.465 7.64 2.865 24.59 1.201l39.329 15.513 8.696-21.605zm152.257 11.162l-26.88.1c29.475 65.994 44.844 100.547 46.107 103.66 2.84 7.003-3.17 17.67-5.741 23.402 8.372 3.727 7.48-10.076 18.041-5.188 9.64 4.462 16.973 12.547 28.11 5.71 1.37-.84 2.87-4.006-.755-6.479-9.033-6.162-22.049-16.946-23.807-20.496-2.399-4.84-14.09-38.41-35.075-100.71z" fill="#DEBDA9"></path><path d="M420.931 227.107l-21.046 1.395c-5.184 46.656-33.418 76.126-96.632 66.15l-8.398 60.082c59.083 7.597 110.899-15.937 121.518-79.655 2.75-16.495 4.92-33.661 4.558-47.972z" fill="#AFB9C5"></path><path d="M431.315 221.02l-31.889 7.266c0 54.568-17.471 89.383-26.432 129.503h86.122c1.213 13.864 1.959 28.112 2.347 42.747h64.485c-14.612-77.354-45.455-137.2-92.528-179.536h-2.088l-.017.02z" fill="#C5CFD6"></path><path d="M445.528 279.94c2.22 34.004.915 59.954-3.916 77.85h17.504c-2.403-27.464-6.644-53.413-13.588-77.85z" fill-opacity=".1" fill="#000"></path></g></g></g></svg>